<?xml version="1.0" encoding="utf-8" standalone="no"?>
<!DOCTYPE svg PUBLIC "-//W3C//DTD SVG 1.1//EN"
  "http://www.w3.org/Graphics/SVG/1.1/DTD/svg11.dtd">
<svg xmlns:xlink="http://www.w3.org/1999/xlink" width="576pt" height="331.2pt" viewBox="0 0 576 331.2" xmlns="http://www.w3.org/2000/svg" version="1.1">
 <metadata>
  <rdf:RDF xmlns:dc="http://purl.org/dc/elements/1.1/" xmlns:cc="http://creativecommons.org/ns#" xmlns:rdf="http://www.w3.org/1999/02/22-rdf-syntax-ns#">
   <cc:Work>
    <dc:type rdf:resource="http://purl.org/dc/dcmitype/StillImage"/>
    <dc:format>image/svg+xml</dc:format>
    <dc:creator>
     <cc:Agent>
      <dc:title>Matplotlib v3.11.2, https://matplotlib.org/</dc:title>
     </cc:Agent>
    </dc:creator>
   </cc:Work>
  </rdf:RDF>
 </metadata>
 <defs>
  <style type="text/css">*{stroke-linejoin: round; stroke-linecap: butt}</style>
 </defs>
 <g id="figure_1">
  <g id="patch_1">
   <path d="M 0 331.2
L 576 331.2
L 576 0
L 0 0
z
" style="fill: #ffffff"/>
  </g>
  <g id="axes_1">
   <g id="patch_2">
    <path d="M 39.904146 311.198979
L 572.99976 311.198979
L 572.99976 44.063533
L 39.904146 44.063533
z
" style="fill: #ffffff"/>
   </g>
   <g id="PathCollection_1">
    <defs>
     <path id="m33063ed6f0" d="M 0 3.162278
C 0.838646 3.162278 1.643056 2.82908 2.236068 2.236068
C 2.82908 1.643056 3.162278 0.838646 3.162278 0
C 3.162278 -0.838646 2.82908 -1.643056 2.236068 -2.236068
C 1.643056 -2.82908 0.838646 -3.162278 0 -3.162278
C -0.838646 -3.162278 -1.643056 -2.82908 -2.236068 -2.236068
C -2.82908 -1.643056 -3.162278 -0.838646 -3.162278 0
C -3.162278 0.838646 -2.82908 1.643056 -2.236068 2.236068
C -1.643056 2.82908 -0.838646 3.162278 0 3.162278
z
" style="stroke: #0072b2; stroke-opacity: 0.7"/>
    </defs>
    <g clip-path="url(#p33a25047a8)">
     <use xlink:href="#m33063ed6f0" x="89.659737" y="271.7478" style="fill: #0072b2; fill-opacity: 0.7; stroke: #0072b2; stroke-opacity: 0.7"/>
     <use xlink:href="#m33063ed6f0" x="94.398365" y="282.638403" style="fill: #0072b2; fill-opacity: 0.7; stroke: #0072b2; stroke-opacity: 0.7"/>
     <use xlink:href="#m33063ed6f0" x="99.136992" y="287.119164" style="fill: #0072b2; fill-opacity: 0.7; stroke: #0072b2; stroke-opacity: 0.7"/>
     <use xlink:href="#m33063ed6f0" x="103.87562" y="280.266543" style="fill: #0072b2; fill-opacity: 0.7; stroke: #0072b2; stroke-opacity: 0.7"/>
     <use xlink:href="#m33063ed6f0" x="108.614248" y="272.256567" style="fill: #0072b2; fill-opacity: 0.7; stroke: #0072b2; stroke-opacity: 0.7"/>
     <use xlink:href="#m33063ed6f0" x="113.352875" y="284.987568" style="fill: #0072b2; fill-opacity: 0.7; stroke: #0072b2; stroke-opacity: 0.7"/>
     <use xlink:href="#m33063ed6f0" x="118.091503" y="283.720666" style="fill: #0072b2; fill-opacity: 0.7; stroke: #0072b2; stroke-opacity: 0.7"/>
     <use xlink:href="#m33063ed6f0" x="122.830131" y="285.405382" style="fill: #0072b2; fill-opacity: 0.7; stroke: #0072b2; stroke-opacity: 0.7"/>
     <use xlink:href="#m33063ed6f0" x="127.568758" y="259.263869" style="fill: #0072b2; fill-opacity: 0.7; stroke: #0072b2; stroke-opacity: 0.7"/>
     <use xlink:href="#m33063ed6f0" x="132.307386" y="284.476764" style="fill: #0072b2; fill-opacity: 0.7; stroke: #0072b2; stroke-opacity: 0.7"/>
    </g>
   </g>
   <g id="PathCollection_2">
    <defs>
     <path id="m98e09b4e00" d="M 0 3.162278
C 0.838646 3.162278 1.643056 2.82908 2.236068 2.236068
C 2.82908 1.643056 3.162278 0.838646 3.162278 0
C 3.162278 -0.838646 2.82908 -1.643056 2.236068 -2.236068
C 1.643056 -2.82908 0.838646 -3.162278 0 -3.162278
C -0.838646 -3.162278 -1.643056 -2.82908 -2.236068 -2.236068
C -2.82908 -1.643056 -3.162278 -0.838646 -3.162278 0
C -3.162278 0.838646 -2.82908 1.643056 -2.236068 2.236068
C -1.643056 2.82908 -0.838646 3.162278 0 3.162278
z
" style="stroke: #d55e00; stroke-opacity: 0.7"/>
    </defs>
    <g clip-path="url(#p33a25047a8)">
     <use xlink:href="#m98e09b4e00" x="267.358275" y="223.346779" style="fill: #d55e00; fill-opacity: 0.7; stroke: #d55e00; stroke-opacity: 0.7"/>
     <use xlink:href="#m98e09b4e00" x="272.096902" y="181.648765" style="fill: #d55e00; fill-opacity: 0.7; stroke: #d55e00; stroke-opacity: 0.7"/>
     <use xlink:href="#m98e09b4e00" x="276.83553" y="247.792588" style="fill: #d55e00; fill-opacity: 0.7; stroke: #d55e00; stroke-opacity: 0.7"/>
     <use xlink:href="#m98e09b4e00" x="281.574158" y="225.177602" style="fill: #d55e00; fill-opacity: 0.7; stroke: #d55e00; stroke-opacity: 0.7"/>
     <use xlink:href="#m98e09b4e00" x="286.312785" y="234.61114" style="fill: #d55e00; fill-opacity: 0.7; stroke: #d55e00; stroke-opacity: 0.7"/>
     <use xlink:href="#m98e09b4e00" x="291.051413" y="207.985011" style="fill: #d55e00; fill-opacity: 0.7; stroke: #d55e00; stroke-opacity: 0.7"/>
     <use xlink:href="#m98e09b4e00" x="295.790041" y="235.798606" style="fill: #d55e00; fill-opacity: 0.7; stroke: #d55e00; stroke-opacity: 0.7"/>
     <use xlink:href="#m98e09b4e00" x="300.528669" y="228.125732" style="fill: #d55e00; fill-opacity: 0.7; stroke: #d55e00; stroke-opacity: 0.7"/>
     <use xlink:href="#m98e09b4e00" x="305.267296" y="204.058677" style="fill: #d55e00; fill-opacity: 0.7; stroke: #d55e00; stroke-opacity: 0.7"/>
     <use xlink:href="#m98e09b4e00" x="310.005924" y="211.849453" style="fill: #d55e00; fill-opacity: 0.7; stroke: #d55e00; stroke-opacity: 0.7"/>
    </g>
   </g>
   <g id="PathCollection_3">
    <defs>
     <path id="m11880187a5" d="M 0 3.162278
C 0.838646 3.162278 1.643056 2.82908 2.236068 2.236068
C 2.82908 1.643056 3.162278 0.838646 3.162278 0
C 3.162278 -0.838646 2.82908 -1.643056 2.236068 -2.236068
C 1.643056 -2.82908 0.838646 -3.162278 0 -3.162278
C -0.838646 -3.162278 -1.643056 -2.82908 -2.236068 -2.236068
C -2.82908 -1.643056 -3.162278 -0.838646 -3.162278 0
C -3.162278 0.838646 -2.82908 1.643056 -2.236068 2.236068
C -1.643056 2.82908 -0.838646 3.162278 0 3.162278
z
" style="stroke: #7a5195; stroke-opacity: 0.7"/>
    </defs>
    <g clip-path="url(#p33a25047a8)">
     <use xlink:href="#m11880187a5" x="445.056813" y="176.165832" style="fill: #7a5195; fill-opacity: 0.7; stroke: #7a5195; stroke-opacity: 0.7"/>
     <use xlink:href="#m11880187a5" x="449.79544" y="167.997726" style="fill: #7a5195; fill-opacity: 0.7; stroke: #7a5195; stroke-opacity: 0.7"/>
     <use xlink:href="#m11880187a5" x="454.534068" y="171.504705" style="fill: #7a5195; fill-opacity: 0.7; stroke: #7a5195; stroke-opacity: 0.7"/>
     <use xlink:href="#m11880187a5" x="459.272696" y="200.623181" style="fill: #7a5195; fill-opacity: 0.7; stroke: #7a5195; stroke-opacity: 0.7"/>
     <use xlink:href="#m11880187a5" x="464.011323" y="191.618987" style="fill: #7a5195; fill-opacity: 0.7; stroke: #7a5195; stroke-opacity: 0.7"/>
     <use xlink:href="#m11880187a5" x="468.749951" y="200.922989" style="fill: #7a5195; fill-opacity: 0.7; stroke: #7a5195; stroke-opacity: 0.7"/>
     <use xlink:href="#m11880187a5" x="473.488579" y="177.152584" style="fill: #7a5195; fill-opacity: 0.7; stroke: #7a5195; stroke-opacity: 0.7"/>
     <use xlink:href="#m11880187a5" x="478.227206" y="119.819911" style="fill: #7a5195; fill-opacity: 0.7; stroke: #7a5195; stroke-opacity: 0.7"/>
     <use xlink:href="#m11880187a5" x="482.965834" y="177.132296" style="fill: #7a5195; fill-opacity: 0.7; stroke: #7a5195; stroke-opacity: 0.7"/>
     <use xlink:href="#m11880187a5" x="487.704462" y="143.673182" style="fill: #7a5195; fill-opacity: 0.7; stroke: #7a5195; stroke-opacity: 0.7"/>
    </g>
   </g>
   <g id="PathCollection_4"/>
   <g id="PathCollection_5"/>
   <g id="matplotlib.axis_1">
    <g id="xtick_1">
     <g id="line2d_1">
      <defs>
       <path id="mcc74ec02a2" d="M 0 0
L 0 3.5
" style="stroke: #000000; stroke-width: 0.8"/>
      </defs>
      <g>
       <use xlink:href="#mcc74ec02a2" x="110.983561" y="311.198979" style="stroke: #000000; stroke-width: 0.8"/>
      </g>
     </g>
     <g id="text_1">
      <text style="font-size: 10px; font-family: 'DejaVu Sans'; text-anchor: middle" x="110.983561" y="325.797416" transform="rotate(-0 110.983561 325.797416)">Alpha = 10</text>
     </g>
    </g>
    <g id="xtick_2">
     <g id="line2d_2">
      <g>
       <use xlink:href="#mcc74ec02a2" x="288.682099" y="311.198979" style="stroke: #000000; stroke-width: 0.8"/>
      </g>
     </g>
     <g id="text_2">
      <text style="font-size: 10px; font-family: 'DejaVu Sans'; text-anchor: middle" x="288.682099" y="325.797416" transform="rotate(-0 288.682099 325.797416)">Alpha = 1</text>
     </g>
    </g>
    <g id="xtick_3">
     <g id="line2d_3">
      <g>
       <use xlink:href="#mcc74ec02a2" x="466.380637" y="311.198979" style="stroke: #000000; stroke-width: 0.8"/>
      </g>
     </g>
     <g id="text_3">
      <text style="font-size: 10px; font-family: 'DejaVu Sans'; text-anchor: middle" x="466.380637" y="325.797416" transform="rotate(-0 466.380637 325.797416)">Alpha = 0.3</text>
     </g>
    </g>
   </g>
   <g id="matplotlib.axis_2">
    <g id="ytick_1">
     <g id="line2d_4">
      <path d="M 39.904146 311.198979
L 572.99976 311.198979
" clip-path="url(#p33a25047a8)" style="fill: none; stroke: #b0b0b0; stroke-opacity: 0.2; stroke-width: 0.8; stroke-linecap: square"/>
     </g>
     <g id="line2d_5">
      <defs>
       <path id="m1da4b5c565" d="M 0 0
L -3.5 0
" style="stroke: #000000; stroke-width: 0.8"/>
      </defs>
      <g>
       <use xlink:href="#m1da4b5c565" x="39.904146" y="311.198979" style="stroke: #000000; stroke-width: 0.8"/>
      </g>
     </g>
     <g id="text_4">
      <text style="font-size: 10px; font-family: 'DejaVu Sans'; text-anchor: end" x="32.904146" y="314.997807" transform="rotate(-0 32.904146 314.997807)">0.0</text>
     </g>
    </g>
    <g id="ytick_2">
     <g id="line2d_6">
      <path d="M 39.904146 257.771889
L 572.99976 257.771889
" clip-path="url(#p33a25047a8)" style="fill: none; stroke: #b0b0b0; stroke-opacity: 0.2; stroke-width: 0.8; stroke-linecap: square"/>
     </g>
     <g id="line2d_7">
      <g>
       <use xlink:href="#m1da4b5c565" x="39.904146" y="257.771889" style="stroke: #000000; stroke-width: 0.8"/>
      </g>
     </g>
     <g id="text_5">
      <text style="font-size: 10px; font-family: 'DejaVu Sans'; text-anchor: end" x="32.904146" y="261.570718" transform="rotate(-0 32.904146 261.570718)">0.2</text>
     </g>
    </g>
    <g id="ytick_3">
     <g id="line2d_8">
      <path d="M 39.904146 204.3448
L 572.99976 204.3448
" clip-path="url(#p33a25047a8)" style="fill: none; stroke: #b0b0b0; stroke-opacity: 0.2; stroke-width: 0.8; stroke-linecap: square"/>
     </g>
     <g id="line2d_9">
      <g>
       <use xlink:href="#m1da4b5c565" x="39.904146" y="204.3448" style="stroke: #000000; stroke-width: 0.8"/>
      </g>
     </g>
     <g id="text_6">
      <text style="font-size: 10px; font-family: 'DejaVu Sans'; text-anchor: end" x="32.904146" y="208.143628" transform="rotate(-0 32.904146 208.143628)">0.4</text>
     </g>
    </g>
    <g id="ytick_4">
     <g id="line2d_10">
      <path d="M 39.904146 150.917711
L 572.99976 150.917711
" clip-path="url(#p33a25047a8)" style="fill: none; stroke: #b0b0b0; stroke-opacity: 0.2; stroke-width: 0.8; stroke-linecap: square"/>
     </g>
     <g id="line2d_11">
      <g>
       <use xlink:href="#m1da4b5c565" x="39.904146" y="150.917711" style="stroke: #000000; stroke-width: 0.8"/>
      </g>
     </g>
     <g id="text_7">
      <text style="font-size: 10px; font-family: 'DejaVu Sans'; text-anchor: end" x="32.904146" y="154.716539" transform="rotate(-0 32.904146 154.716539)">0.6</text>
     </g>
    </g>
    <g id="ytick_5">
     <g id="line2d_12">
      <path d="M 39.904146 97.490622
L 572.99976 97.490622
" clip-path="url(#p33a25047a8)" style="fill: none; stroke: #b0b0b0; stroke-opacity: 0.2; stroke-width: 0.8; stroke-linecap: square"/>
     </g>
     <g id="line2d_13">
      <g>
       <use xlink:href="#m1da4b5c565" x="39.904146" y="97.490622" style="stroke: #000000; stroke-width: 0.8"/>
      </g>
     </g>
     <g id="text_8">
      <text style="font-size: 10px; font-family: 'DejaVu Sans'; text-anchor: end" x="32.904146" y="101.28945" transform="rotate(-0 32.904146 101.28945)">0.8</text>
     </g>
    </g>
    <g id="ytick_6">
     <g id="line2d_14">
      <path d="M 39.904146 44.063533
L 572.99976 44.063533
" clip-path="url(#p33a25047a8)" style="fill: none; stroke: #b0b0b0; stroke-opacity: 0.2; stroke-width: 0.8; stroke-linecap: square"/>
     </g>
     <g id="line2d_15">
      <g>
       <use xlink:href="#m1da4b5c565" x="39.904146" y="44.063533" style="stroke: #000000; stroke-width: 0.8"/>
      </g>
     </g>
     <g id="text_9">
      <text style="font-size: 10px; font-family: 'DejaVu Sans'; text-anchor: end" x="32.904146" y="47.862361" transform="rotate(-0 32.904146 47.862361)">1.0</text>
     </g>
    </g>
    <g id="text_10">
     <text style="font-size: 10px; font-family: 'DejaVu Sans'; text-anchor: middle" x="10.598678" y="177.631256" transform="rotate(-90 10.598678 177.631256)">Label total variation from global distribution</text>
    </g>
   </g>
   <g id="patch_3">
    <path d="M 39.904146 311.198979
L 39.904146 44.063533
" style="fill: none; stroke: #000000; stroke-width: 0.8; stroke-linejoin: miter; stroke-linecap: square"/>
   </g>
   <g id="patch_4">
    <path d="M 39.904146 311.198979
L 572.99976 311.198979
" style="fill: none; stroke: #000000; stroke-width: 0.8; stroke-linejoin: miter; stroke-linecap: square"/>
   </g>
   <g id="PathCollection_6">
    <defs>
     <path id="mcb1d72a9e3" d="M 0 6.708204
L 6.708204 0
L 0 -6.708204
L -6.708204 0
z
" style="stroke: #000000"/>
    </defs>
    <g clip-path="url(#p33a25047a8)">
     <use xlink:href="#mcb1d72a9e3" x="110.983561" y="279.188273" style="fill: #0072b2; stroke: #000000"/>
    </g>
   </g>
   <g id="text_11">
    <text style="font-size: 10px; font-family: 'DejaVu Sans'; text-anchor: start" x="142.969298" y="281.785929" transform="rotate(-0 142.969298 281.785929)">0.1198</text>
   </g>
   <g id="PathCollection_7">
    <defs>
     <path id="m85dcbc492e" d="M 0 6.708204
L 6.708204 0
L 0 -6.708204
L -6.708204 0
z
" style="stroke: #000000"/>
    </defs>
    <g clip-path="url(#p33a25047a8)">
     <use xlink:href="#m85dcbc492e" x="288.682099" y="220.039435" style="fill: #d55e00; stroke: #000000"/>
    </g>
   </g>
   <g id="text_12">
    <text style="font-size: 10px; font-family: 'DejaVu Sans'; text-anchor: start" x="320.667836" y="222.637092" transform="rotate(-0 320.667836 222.637092)">0.3412</text>
   </g>
   <g id="PathCollection_8">
    <defs>
     <path id="m471a021705" d="M 0 6.708204
L 6.708204 0
L 0 -6.708204
L -6.708204 0
z
" style="stroke: #000000"/>
    </defs>
    <g clip-path="url(#p33a25047a8)">
     <use xlink:href="#m471a021705" x="466.380637" y="172.661139" style="fill: #7a5195; stroke: #000000"/>
    </g>
   </g>
   <g id="text_13">
    <text style="font-size: 10px; font-family: 'DejaVu Sans'; text-anchor: start" x="498.366374" y="175.258796" transform="rotate(-0 498.366374 175.258796)">0.5186</text>
   </g>
   <g id="legend_1">
    <g id="patch_5">
     <path d="M 45.504146 74.464783
L 254.914146 74.464783
Q 256.514146 74.464783 256.514146 72.864782
L 256.514146 49.663533
Q 256.514146 48.063533 254.914146 48.063533
L 45.504146 48.063533
Q 43.904146 48.063533 43.904146 49.663533
L 43.904146 72.864782
Q 43.904146 74.464783 45.504146 74.464783
z
" style="fill: #ffffff; opacity: 0.8; stroke: #cccccc; stroke-linejoin: miter"/>
    </g>
    <g id="PathCollection_9">
     <defs>
      <path id="m223e574e00" d="M 0 3
C 0.795609 3 1.55874 2.683901 2.12132 2.12132
C 2.683901 1.55874 3 0.795609 3 0
C 3 -0.795609 2.683901 -1.55874 2.12132 -2.12132
C 1.55874 -2.683901 0.795609 -3 0 -3
C -0.795609 -3 -1.55874 -2.683901 -2.12132 -2.12132
C -2.683901 -1.55874 -3 -0.795609 -3 0
C -3 0.795609 -2.683901 1.55874 -2.12132 2.12132
C -1.55874 2.683901 -0.795609 3 0 3
z
" style="stroke: #555555"/>
     </defs>
     <g>
      <use xlink:href="#m223e574e00" x="55.104146" y="55.242283" style="fill: #555555; stroke: #555555"/>
     </g>
    </g>
    <g id="text_14">
     <text style="font-size: 8px; font-family: 'DejaVu Sans'; text-anchor: start" x="69.504146" y="57.342283" transform="rotate(-0 69.504146 57.342283)">One client (horizontal offset separates points)</text>
    </g>
    <g id="PathCollection_10">
     <defs>
      <path id="m71c128f579" d="M 0 4.242641
L 4.242641 0
L 0 -4.242641
L -4.242641 0
z
" style="stroke: #000000"/>
     </defs>
     <g>
      <use xlink:href="#m71c128f579" x="55.104146" y="67.242908" style="fill: #555555; stroke: #000000"/>
     </g>
    </g>
    <g id="text_15">
     <text style="font-size: 8px; font-family: 'DejaVu Sans'; text-anchor: start" x="69.504146" y="69.342908" transform="rotate(-0 69.504146 69.342908)">Unweighted client mean</text>
    </g>
   </g>
  </g>
  <g id="text_16">
   <text style="font-size: 13px; font-family: 'DejaVu Sans'" transform="translate(191.254609 14.179478)">Observed label heterogeneity</text>
   <text style="font-size: 13px; font-family: 'DejaVu Sans'" transform="translate(21.859531 29.839908)">Fashion-MNIST training set | 10 clients | seed 42 | single-seed development check</text>
  </g>
 </g>
 <defs>
  <clipPath id="p33a25047a8">
   <rect x="39.904146" y="44.063533" width="533.095614" height="267.135446"/>
  </clipPath>
 </defs>
</svg>
